<svg xmlns="http://www.w3.org/2000/svg" xmlns:xlink="http://www.w3.org/1999/xlink" fill="none" version="1.1" width="12" height="12" viewBox="0 0 12 12"><defs><clipPath id="master_svg0_7_4449"><rect x="0" y="0" width="12" height="12" rx="0"/></clipPath></defs><g clip-path="url(#master_svg0_7_4449)"><g><g><path d="M10.265154741210937,3.6004687882995605C10.118714741210937,3.4540187882995603,9.881274741210937,3.4540187882995603,9.734824741210938,3.6004687882995605C9.588384741210938,3.7469087882995606,9.588384741210938,3.9843487882995605,9.734824741210938,4.130798788299561C9.734824741210938,4.130798788299561,9.934824741210937,4.33079878829956,9.934824741210937,4.33079878829956C9.938684741210938,4.33464878829956,9.942254741210938,4.33821878829956,9.945574741210937,4.341538788299561C9.968794741210937,4.3647687882995605,9.979564741210938,4.375578788299561,9.988424741210938,4.384698788299561C10.789804741210938,5.20936878829956,10.789804741210938,6.521898788299561,9.988424741210938,7.346558788299561C9.978294741210938,7.35698878829956,9.965674741210938,7.369618788299561,9.934824741210937,7.400468788299561C9.934824741210937,7.400468788299561,9.734824741210938,7.600468788299561,9.734824741210938,7.600468788299561C9.588384741210938,7.74690878829956,9.588384741210938,7.9843487882995605,9.734824741210938,8.130798788299561C9.881274741210937,8.27723878829956,10.118714741210937,8.27723878829956,10.265154741210937,8.130798788299561C10.265154741210937,8.130798788299561,10.467834741210938,7.92811878829956,10.467834741210938,7.92811878829956C10.471254741210938,7.924698788299561,10.474624741210938,7.92133878829956,10.477714741210937,7.91823878829956C10.499414741210938,7.896528788299561,10.513744741210937,7.882148788299561,10.526294741210938,7.869238788299561C11.610484741210938,6.75351878829956,11.610484741210938,4.977748788299561,10.526294741210938,3.8620187882995607C10.511934741210938,3.8472387882995607,10.495234741210938,3.8305387882995605,10.467814741210937,3.8031287882995604C10.467814741210937,3.8031287882995604,10.265154741210937,3.6004687882995605,10.265154741210937,3.6004687882995605ZM7.384754741210937,1.6656014882995605C6.967234741210937,1.5439087882995606,6.566094741210938,1.7105449882995605,6.181324741210937,1.9532747882995605C5.794884741210938,2.1970557882995605,5.325864741210937,2.5836167882995604,4.739064741210937,3.0672587882995606C4.739064741210937,3.0672587882995606,4.218974741210937,3.4959087882995608,4.218974741210937,3.4959087882995608C4.119234741210938,3.5781087882995606,4.078904741210938,3.6112087882995603,4.038944741210937,3.6409887882995604C3.7005047412109375,3.8931887882995606,3.2946347412109374,4.038888788299561,2.8730747412109374,4.0595187882995605C2.823284741210937,4.0619587882995605,2.771114741210938,4.062058788299561,2.6418747412109376,4.062058788299561C2.6418747412109376,4.062058788299561,2.6210847412109377,4.062058788299561,2.6210847412109377,4.062058788299561C2.5096747412109375,4.0620287882995605,2.4238347412109373,4.061998788299561,2.3470947412109373,4.070588788299561C1.7087727412109375,4.14200878829956,1.2049451412109375,4.64583878829956,1.1335202812109375,5.28415878829956C1.1249327687109374,5.3608987882995605,1.1249569982109375,5.446738788299561,1.1249884694609376,5.55814878829956C1.1249884694609376,5.55814878829956,1.1249884694609376,6.173108788299561,1.1249884694609376,6.173108788299561C1.1249569982109375,6.28451878829956,1.1249327687109374,6.37035878829956,1.1335202512109375,6.447108788299561C1.2049450412109375,7.0854187882995605,1.7087727412109375,7.58924878829956,2.3470947412109373,7.660678788299561C2.4238347412109373,7.669258788299561,2.5096747412109375,7.669238788299561,2.6210947412109373,7.669208788299561C2.6210947412109373,7.669208788299561,2.6418747412109376,7.6691987882995605,2.6418747412109376,7.6691987882995605C2.771114741210938,7.6691987882995605,2.823284741210937,7.669308788299561,2.8730747412109374,7.67173878829956C3.2946347412109374,7.692368788299561,3.7005047412109375,7.8380687882995606,4.038944741210937,8.09026878829956C4.078914741210937,8.12004878829956,4.119234741210938,8.15315878829956,4.218974741210937,8.23534878829956C4.218974741210937,8.23534878829956,4.739054741210937,8.66399878829956,4.739054741210937,8.66399878829956C5.325864741210937,9.14763878829956,5.794884741210938,9.53420878829956,6.181324741210937,9.777988788299561C6.566094741210938,10.020718788299561,6.967234741210937,10.18734878829956,7.384754741210937,10.06565878829956C7.523314741210937,10.025268788299561,7.654664741210937,9.96331878829956,7.773964741210937,9.88207878829956C8.133414741210938,9.637278788299561,8.259954741210937,9.221738788299561,8.317354741210938,8.770438788299561C8.375004741210937,8.31718878829956,8.375004741210937,7.709398788299561,8.374994741210937,6.9489687882995606C8.374994741210937,6.9489687882995606,8.374994741210937,4.78228878829956,8.374994741210937,4.78228878829956C8.375004741210937,4.021858788299561,8.375004741210937,3.4140687882995606,8.317354741210938,2.9608187882995605C8.259954741210937,2.5095207882995605,8.133414741210938,2.0939827882995603,7.773964741210937,1.8491887882995606C7.654664741210937,1.7679437882995606,7.523314741210937,1.7059898882995606,7.384754741210937,1.6656014882995605ZM5.193974741210938,3.6642387882995604C5.807904741210938,3.1582387882995606,6.240284741210938,2.8028487882995607,6.581484741210938,2.5876017882995606C6.929184741210937,2.3682547882995606,7.084674741210938,2.3593477882995604,7.1748847412109376,2.3856397882995606C7.237864741210937,2.4039977882995607,7.297574741210937,2.4321597882995607,7.351794741210938,2.4690887882995605C7.429454741210938,2.5219777882995604,7.5214747412109375,2.647628788299561,7.573354741210937,3.0554587882995605C7.624254741210938,3.455648788299561,7.624994741210937,4.015338788299561,7.624994741210937,4.81092878829956C7.624994741210937,4.81092878829956,7.624994741210937,6.920338788299561,7.624994741210937,6.920338788299561C7.624994741210937,7.71591878829956,7.624254741210938,8.27561878829956,7.573354741210937,8.67580878829956C7.5214747412109375,9.08362878829956,7.429454741210938,9.20928878829956,7.351794741210938,9.262178788299561C7.297574741210937,9.29909878829956,7.237864741210937,9.32726878829956,7.1748847412109376,9.34561878829956C7.084674741210938,9.37191878829956,6.929184741210937,9.36300878829956,6.581484741210938,9.143658788299561C6.240284741210938,8.92841878829956,5.807904741210938,8.57301878829956,5.193964741210937,8.06702878829956C5.193964741210937,8.06702878829956,4.6881647412109375,7.6501487882995605,4.6881647412109375,7.6501487882995605C4.598624741210937,7.57634878829956,4.543534741210937,7.53094878829956,4.487084741210937,7.48887878829956C4.029204741210938,7.147678788299561,3.4800847412109377,6.95054878829956,2.9097347412109373,6.922638788299561C2.8394147412109376,6.9191987882995605,2.7680247412109376,6.9191987882995605,2.6519947412109373,6.9191987882995605C2.6519947412109373,6.9191987882995605,2.6418747412109376,6.9191987882995605,2.6418747412109376,6.9191987882995605C2.4999647412109374,6.9191987882995605,2.4598947412109373,6.91861878829956,2.4304947412109374,6.91532878829956C2.1403447412109378,6.88285878829956,1.9113347412109376,6.653848788299561,1.8788687412109375,6.36369878829956C1.8755787412109375,6.33429878829956,1.8749927412109375,6.29422878829956,1.8749927412109375,6.152318788299561C1.8749927412109375,6.152318788299561,1.8749927412109375,5.578938788299561,1.8749927412109375,5.578938788299561C1.8749927412109375,5.43703878829956,1.8755787412109375,5.39695878829956,1.8788687412109375,5.367558788299561C1.9113347412109376,5.0774187882995605,2.1403447412109378,4.84839878829956,2.4304947412109374,4.81593878829956C2.4598947412109373,4.81264878829956,2.4999647412109374,4.812058788299561,2.6418747412109376,4.812058788299561C2.6418747412109376,4.812058788299561,2.6520047412109378,4.812058788299561,2.6520047412109378,4.812058788299561C2.7680247412109376,4.812058788299561,2.8394147412109376,4.812068788299561,2.9097347412109373,4.80861878829956C3.4800847412109377,4.7807087882995605,4.029204741210938,4.5835887882995605,4.487084741210937,4.242378788299561C4.543534741210937,4.2003087882995604,4.598624741210937,4.154908788299561,4.6881647412109375,4.081108788299561C4.6881647412109375,4.081108788299561,5.193974741210938,3.6642387882995604,5.193974741210938,3.6642387882995604Z" fill-rule="evenodd" fill="#000000" fill-opacity="1"/></g></g></g></svg>